SplineFontDB: 3.2
FontName: InupiaqNumbers
FullName: InupiaqNumbers
FamilyName: InupiaqNumbers
Weight: Regular
Copyright: Copyright (c) 2020, Nathan\n\nPermission is hereby granted, free of charge, to any person obtaining a copy of this software and associated documentation files (the "Software"), to deal in the Software without restriction, including without limitation the rights to use, copy, modify, merge, publish, distribute, sublicense, and/or sell copies of the Software, and to permit persons to whom the Software is furnished to do so, subject to the following conditions:\n\nThe above copyright notice and this permission notice shall be included in all copies or substantial portions of the Software.\n\nTHE SOFTWARE IS PROVIDED "AS IS", WITHOUT WARRANTY OF ANY KIND, EXPRESS OR IMPLIED, INCLUDING BUT NOT LIMITED TO THE WARRANTIES OF MERCHANTABILITY, FITNESS FOR A PARTICULAR PURPOSE AND NONINFRINGEMENT. IN NO EVENT SHALL THE AUTHORS OR COPYRIGHT HOLDERS BE LIABLE FOR ANY CLAIM, DAMAGES OR OTHER LIABILITY, WHETHER IN AN ACTION OF CONTRACT, TORT OR OTHERWISE, ARISING FROM, OUT OF OR IN CONNECTION WITH THE SOFTWARE OR THE USE OR OTHER DEALINGS IN THE SOFTWARE.
UComments: "2020-1-1: Created with FontForge (http://fontforge.org)"
Version: 002.000
ItalicAngle: 0
UnderlinePosition: -120
UnderlineWidth: 60
Ascent: 1000
Descent: 205
InvalidEm: 0
LayerCount: 2
Layer: 0 0 "Back" 1
Layer: 1 0 "Fore" 0
XUID: [1021 498 -2101142793 9498728]
OS2Version: 0
OS2_WeightWidthSlopeOnly: 0
OS2_UseTypoMetrics: 1
CreationTime: 1577860449
ModificationTime: 1578143100
OS2TypoAscent: 0
OS2TypoAOffset: 1
OS2TypoDescent: 0
OS2TypoDOffset: 1
OS2TypoLinegap: 0
OS2WinAscent: 0
OS2WinAOffset: 1
OS2WinDescent: 0
OS2WinDOffset: 1
HheadAscent: 0
HheadAOffset: 1
HheadDescent: 0
HheadDOffset: 1
OS2Vendor: 'PfEd'
MarkAttachClasses: 1
DEI: 91125
Encoding: UnicodeFull
UnicodeInterp: none
NameList: AGL For New Fonts
DisplaySize: -48
AntiAlias: 1
FitToEm: 0
WinInfo: 58558 38 14
BeginPrivate: 0
EndPrivate

StartChar: uniE5A0
Encoding: 58784 58784 0
Width: 700
VWidth: 1024
Flags: HW
HStem: 100 0 600 0 700 0 800 0 900 0
VStem: 100 0 225 0 267 0 350 0 433 0 475 0 600 0
LayerCount: 2
Fore
SplineSet
50 900 m 4
 50 913 55 925 65 935 c 4
 75 945 87 950 100 950 c 4
 113 950 125 945 135 935 c 4
 138 932 140 929 142 926 c 6
 642 126 l 6
 647 118 650 109 650 100 c 4
 650 87 645 75 635 65 c 4
 625 55 613 50 600 50 c 4
 587 50 575 55 565 65 c 4
 562 68 560 71 558 74 c 6
 58 874 l 6
 53 882 50 891 50 900 c 4
EndSplineSet
EndChar

StartChar: uniE5A1
Encoding: 58785 58785 1
Width: 700
VWidth: 1024
Flags: HW
HStem: 100 0 600 0 700 0 800 0 900 0
VStem: 100 0 225 0 267 0 350 0 433 0 475 0 600 0
LayerCount: 2
Fore
SplineSet
50 900 m 4
 50 913 55 925 65 935 c 4
 75 945 87 950 100 950 c 4
 113 950 125 945 135 935 c 4
 141 929 146 922 148 915 c 6
 350 268 l 5
 552 915 l 6
 554 922 559 929 565 935 c 4
 575 945 587 950 600 950 c 4
 613 950 625 945 635 935 c 4
 645 925 650 913 650 900 c 4
 650 895 650 890 648 885 c 6
 398 85 l 6
 396 78 391 71 385 65 c 4
 375 55 363 50 350 50 c 4
 337 50 325 55 315 65 c 4
 309 71 304 78 302 85 c 6
 52 885 l 6
 50 890 50 895 50 900 c 4
EndSplineSet
EndChar

StartChar: uniE5A2
Encoding: 58786 58786 2
Width: 700
VWidth: 1024
Flags: HW
HStem: 100 0 600 0 700 0 800 0 900 0
VStem: 100 0 225 0 267 0 350 0 433 0 475 0 600 0
LayerCount: 2
Fore
SplineSet
50 900 m 4
 50 913 55 925 65 935 c 4
 75 945 87 950 100 950 c 4
 113 950 125 945 135 935 c 4
 142 928 147 919 149 910 c 6
 267 345 l 5
 384 910 l 6
 386 919 391 928 398 935 c 4
 408 945 420 950 433 950 c 4
 446 950 458 945 468 935 c 4
 475 928 480 919 482 910 c 6
 649 110 l 6
 650 107 650 103 650 100 c 4
 650 87 645 75 635 65 c 4
 625 55 613 50 600 50 c 4
 587 50 575 55 565 65 c 4
 558 72 553 81 551 90 c 6
 433 655 l 5
 316 90 l 6
 314 81 309 72 302 65 c 4
 292 55 280 50 267 50 c 4
 254 50 242 55 232 65 c 4
 225 72 220 81 218 90 c 6
 51 890 l 6
 50 893 50 897 50 900 c 4
EndSplineSet
EndChar

StartChar: uniE5A3
Encoding: 58787 58787 3
Width: 700
VWidth: 1024
Flags: HW
HStem: 100 0 600 0 700 0 800 0 900 0
VStem: 100 0 225 0 267 0 350 0 433 0 475 0 600 0
LayerCount: 2
Fore
SplineSet
50 900 m 4
 50 913 55 925 65 935 c 4
 75 945 87 950 100 950 c 4
 113 950 125 945 135 935 c 4
 143 927 147 918 149 908 c 6
 225 424 l 5
 301 908 l 6
 303 918 307 927 315 935 c 4
 325 945 337 950 350 950 c 4
 363 950 375 945 385 935 c 4
 393 927 397 918 399 908 c 6
 475 424 l 5
 551 908 l 6
 553 918 557 927 565 935 c 4
 575 945 587 950 600 950 c 4
 613 950 625 945 635 935 c 4
 645 925 650 913 650 900 c 4
 650 897 649 895 649 892 c 6
 524 92 l 6
 522 82 518 73 510 65 c 4
 500 55 488 50 475 50 c 4
 462 50 450 55 440 65 c 4
 432 73 428 82 426 92 c 6
 350 576 l 5
 274 92 l 6
 272 82 268 73 260 65 c 4
 250 55 238 50 225 50 c 4
 212 50 200 55 190 65 c 4
 182 73 178 82 176 92 c 6
 51 892 l 6
 51 895 50 897 50 900 c 4
EndSplineSet
EndChar

StartChar: uniE5A4
Encoding: 58788 58788 4
Width: 700
VWidth: 1024
Flags: HW
HStem: 100 0 600 0 700 0 800 0 900 0
VStem: 100 0 225 0 267 0 350 0 433 0 475 0 600 0
LayerCount: 2
Fore
SplineSet
600 950 m 4
 613 950 625 945 635 935 c 4
 645 925 650 913 650 900 c 4
 650 887 645 875 635 865 c 4
 628 858 619 853 610 851 c 6
 110 751 l 6
 107 750 103 750 100 750 c 4
 87 750 75 755 65 765 c 4
 55 775 50 787 50 800 c 4
 50 813 55 825 65 835 c 4
 72 842 81 847 90 849 c 6
 590 949 l 6
 593 950 597 950 600 950 c 4
EndSplineSet
EndChar

StartChar: uniE5A5
Encoding: 58789 58789 5
Width: 700
VWidth: 1024
Flags: HW
HStem: 100 0 600 0 700 0 800 0 900 0
VStem: 100 0 225 0 267 0 350 0 433 0 475 0 600 0
LayerCount: 2
Fore
SplineSet
600 950 m 4
 613 950 625 945 635 935 c 4
 645 925 650 913 650 900 c 4
 650 887 645 875 635 865 c 4
 628 858 619 853 610 851 c 6
 186 766 l 5
 641 129 l 6
 647 120 650 110 650 100 c 4
 650 87 645 75 635 65 c 4
 625 55 613 50 600 50 c 4
 584 50 568 59 559 71 c 6
 59 771 l 6
 53 780 50 790 50 800 c 4
 50 813 55 825 65 835 c 4
 72 842 81 847 90 849 c 6
 590 949 l 6
 593 950 597 950 600 950 c 4
EndSplineSet
EndChar

StartChar: uniE5A6
Encoding: 58790 58790 6
Width: 700
VWidth: 1024
Flags: HW
HStem: 100 0 600 0 700 0 800 0 900 0
VStem: 100 0 225 0 267 0 350 0 433 0 475 0 600 0
LayerCount: 2
Fore
SplineSet
600 950 m 4
 613 950 625 945 635 935 c 4
 645 925 650 913 650 900 c 4
 650 887 645 875 635 865 c 4
 628 858 619 853 610 851 c 6
 167 762 l 5
 354 239 l 5
 554 719 l 6
 556 725 560 730 565 735 c 4
 575 745 587 750 600 750 c 4
 613 750 625 745 635 735 c 4
 645 725 650 713 650 700 c 4
 650 693 649 687 646 681 c 6
 396 81 l 6
 394 75 390 70 385 65 c 4
 375 55 363 50 350 50 c 4
 337 50 325 55 315 65 c 4
 310 70 305 76 303 83 c 6
 53 783 l 6
 51 788 50 794 50 800 c 4
 50 813 55 825 65 835 c 4
 72 842 81 847 90 849 c 6
 590 949 l 6
 593 950 597 950 600 950 c 4
EndSplineSet
EndChar

StartChar: uniE5A7
Encoding: 58791 58791 7
Width: 700
VWidth: 1024
Flags: HW
HStem: 100 0 600 0 700 0 800 0 900 0
VStem: 100 0 225 0 267 0 350 0 433 0 475 0 600 0
LayerCount: 2
Fore
SplineSet
600 950 m 4
 613 950 625 945 635 935 c 4
 645 925 650 913 650 900 c 4
 650 887 645 875 635 865 c 4
 628 858 619 853 610 851 c 6
 161 761 l 5
 271 300 l 5
 385 713 l 6
 387 721 392 729 398 735 c 4
 408 745 420 750 433 750 c 4
 446 750 458 745 468 735 c 4
 474 729 479 721 481 713 c 6
 648 113 l 6
 649 109 650 105 650 100 c 4
 650 87 645 75 635 65 c 4
 625 55 613 50 600 50 c 4
 587 50 575 55 565 65 c 4
 559 71 554 79 552 87 c 6
 433 513 l 5
 315 87 l 6
 313 79 308 71 302 65 c 4
 292 55 280 50 267 50 c 4
 254 50 242 55 232 65 c 4
 225 72 220 79 218 88 c 6
 51 788 l 6
 50 792 50 796 50 800 c 4
 50 813 55 825 65 835 c 4
 72 842 81 847 90 849 c 6
 590 949 l 6
 593 950 597 950 600 950 c 4
EndSplineSet
EndChar

StartChar: uniE5A8
Encoding: 58792 58792 8
Width: 700
VWidth: 1024
Flags: HW
HStem: 100 0 600 0 700 0 800 0 900 0
VStem: 100 0 225 0 267 0 350 0 433 0 475 0 600 0
LayerCount: 2
Fore
SplineSet
600 950 m 4
 613 950 625 945 635 935 c 4
 645 925 650 913 650 900 c 4
 650 887 645 875 635 865 c 4
 628 858 619 853 610 851 c 6
 158 761 l 5
 229 363 l 5
 301 710 l 6
 303 719 308 728 315 735 c 4
 325 745 337 750 350 750 c 4
 363 750 375 745 385 735 c 4
 392 728 397 719 399 710 c 6
 475 345 l 5
 551 710 l 6
 553 719 558 728 565 735 c 4
 575 745 587 750 600 750 c 4
 613 750 625 745 635 735 c 4
 645 725 650 713 650 700 c 4
 650 697 650 693 649 690 c 6
 524 90 l 6
 522 81 517 72 510 65 c 4
 500 55 488 50 475 50 c 4
 462 50 450 55 440 65 c 4
 433 72 428 81 426 90 c 6
 350 455 l 5
 274 90 l 6
 272 81 267 72 260 65 c 4
 250 55 238 50 225 50 c 4
 212 50 200 55 190 65 c 4
 182 73 178 81 176 91 c 6
 51 791 l 6
 50 794 50 797 50 800 c 4
 50 813 55 825 65 835 c 4
 72 842 81 847 90 849 c 6
 590 949 l 6
 593 950 597 950 600 950 c 4
EndSplineSet
EndChar

StartChar: uniE5A9
Encoding: 58793 58793 9
Width: 700
VWidth: 1024
Flags: HW
HStem: 100 0 600 0 700 0 800 0 900 0
VStem: 100 0 225 0 267 0 350 0 433 0 475 0 600 0
LayerCount: 2
Fore
SplineSet
50 900 m 4
 50 913 55 925 65 935 c 4
 75 945 87 950 100 950 c 4
 103 950 107 950 110 949 c 6
 610 849 l 6
 619 847 628 842 635 835 c 4
 645 825 650 813 650 800 c 4
 650 787 645 775 635 765 c 4
 628 758 619 753 610 751 c 6
 110 651 l 6
 107 650 103 650 100 650 c 4
 87 650 75 655 65 665 c 4
 55 675 50 687 50 700 c 4
 50 713 55 725 65 735 c 4
 72 742 81 747 90 749 c 6
 345 800 l 5
 90 851 l 6
 81 853 72 858 65 865 c 4
 55 875 50 887 50 900 c 4
EndSplineSet
EndChar

StartChar: uniE5AA
Encoding: 58794 58794 10
Width: 700
VWidth: 1024
Flags: HW
HStem: 100 0 600 0 700 0 800 0 900 0
VStem: 100 0 225 0 267 0 350 0 433 0 475 0 600 0
LayerCount: 2
Fore
SplineSet
50 900 m 4
 50 913 55 925 65 935 c 4
 75 945 87 950 100 950 c 4
 103 950 107 950 110 949 c 6
 610 849 l 6
 619 847 628 842 635 835 c 4
 645 825 650 813 650 800 c 4
 650 787 645 775 635 765 c 4
 628 758 619 753 610 751 c 6
 192 667 l 5
 638 132 l 6
 646 123 650 111 650 100 c 4
 650 87 645 75 635 65 c 4
 625 55 613 50 600 50 c 4
 586 50 571 57 562 68 c 6
 62 668 l 6
 54 677 50 689 50 700 c 4
 50 713 55 725 65 735 c 4
 72 742 81 747 90 749 c 6
 345 800 l 5
 90 851 l 6
 81 853 72 858 65 865 c 4
 55 875 50 887 50 900 c 4
EndSplineSet
EndChar

StartChar: uniE5AB
Encoding: 58795 58795 11
Width: 700
VWidth: 1024
Flags: HW
HStem: 100 0 600 0 700 0 800 0 900 0
VStem: 100 0 225 0 267 0 350 0 433 0 475 0 600 0
LayerCount: 2
Fore
SplineSet
50 900 m 4
 50 913 55 925 65 935 c 4
 75 945 87 950 100 950 c 4
 103 950 107 950 110 949 c 6
 610 849 l 6
 619 847 628 842 635 835 c 4
 645 825 650 813 650 800 c 4
 650 787 645 775 635 765 c 4
 628 758 619 753 610 751 c 6
 170 663 l 5
 354 220 l 5
 555 622 l 6
 557 627 561 631 565 635 c 4
 575 645 587 650 600 650 c 4
 613 650 625 645 635 635 c 4
 645 625 650 613 650 600 c 4
 650 592 649 585 645 578 c 6
 395 78 l 6
 393 73 389 69 385 65 c 4
 375 55 363 50 350 50 c 4
 337 50 325 55 315 65 c 4
 310 70 306 75 304 81 c 6
 54 681 l 6
 51 687 50 693 50 700 c 4
 50 713 55 725 65 735 c 4
 72 742 81 747 90 749 c 6
 345 800 l 5
 90 851 l 6
 81 853 72 858 65 865 c 4
 55 875 50 887 50 900 c 4
EndSplineSet
EndChar

StartChar: uniE5AC
Encoding: 58796 58796 12
Width: 700
VWidth: 1024
Flags: HW
HStem: 100 0 500 0 600 0 700 0 800 0 900 0
VStem: 100 0 225 0 267 0 350 0 433 0 475 0 600 0
LayerCount: 2
Fore
SplineSet
50 900 m 4
 50 913 55 925 65 935 c 4
 75 945 87 950 100 950 c 4
 103 950 107 950 110 949 c 6
 610 849 l 6
 619 847 628 842 635 835 c 4
 645 825 650 813 650 800 c 4
 650 787 645 775 635 765 c 4
 628 758 619 753 610 751 c 6
 163 662 l 5
 271 271 l 5
 386 616 l 6
 388 623 392 629 398 635 c 4
 408 645 420 650 433 650 c 4
 446 650 458 645 468 635 c 4
 474 629 478 623 480 616 c 6
 647 116 l 6
 649 111 650 105 650 100 c 4
 650 87 645 75 635 65 c 4
 625 55 613 50 600 50 c 4
 587 50 575 55 565 65 c 4
 559 71 555 77 553 84 c 6
 433 442 l 5
 314 84 l 6
 312 77 308 71 302 65 c 4
 292 55 280 50 267 50 c 4
 254 50 242 55 232 65 c 4
 226 71 221 79 219 87 c 6
 52 687 l 6
 51 691 50 695 50 700 c 4
 50 713 55 725 65 735 c 4
 72 742 81 747 90 749 c 6
 345 800 l 5
 90 851 l 6
 81 853 72 858 65 865 c 4
 55 875 50 887 50 900 c 4
EndSplineSet
EndChar

StartChar: uniE5AD
Encoding: 58797 58797 13
Width: 700
VWidth: 1024
Flags: HW
HStem: 100 0 500 0 600 0 700 0 800 0 900 0
VStem: 100 0 225 0 267 0 350 0 433 0 475 0 600 0
LayerCount: 2
Fore
SplineSet
50 900 m 4
 50 913 55 925 65 935 c 4
 75 945 87 950 100 950 c 4
 103 950 107 950 110 949 c 6
 610 849 l 6
 619 847 628 842 635 835 c 4
 645 825 650 813 650 800 c 4
 650 787 645 775 635 765 c 4
 628 758 619 753 610 751 c 6
 159 661 l 5
 229 324 l 5
 302 612 l 6
 304 620 308 628 315 635 c 4
 325 645 337 650 350 650 c 4
 363 650 375 645 385 635 c 4
 392 628 396 620 398 612 c 6
 475 306 l 5
 552 612 l 6
 554 620 558 628 565 635 c 4
 575 645 587 650 600 650 c 4
 613 650 625 645 635 635 c 4
 645 625 650 613 650 600 c 4
 650 596 649 592 648 588 c 6
 523 88 l 6
 521 80 517 72 510 65 c 4
 500 55 488 50 475 50 c 4
 462 50 450 55 440 65 c 4
 433 72 429 80 427 88 c 6
 350 394 l 5
 273 88 l 6
 271 80 267 72 260 65 c 4
 250 55 238 50 225 50 c 4
 212 50 200 55 190 65 c 4
 183 72 178 81 176 90 c 6
 51 690 l 6
 50 693 50 697 50 700 c 4
 50 713 55 725 65 735 c 4
 72 742 81 747 90 749 c 6
 345 800 l 5
 90 851 l 6
 81 853 72 858 65 865 c 4
 55 875 50 887 50 900 c 4
EndSplineSet
EndChar

StartChar: uniE5AE
Encoding: 58798 58798 14
Width: 700
VWidth: 1024
Flags: HW
HStem: 100 0 500 0 600 0 700 0 800 0 900 0
VStem: 100 0 225 0 267 0 350 0 433 0 475 0 600 0
LayerCount: 2
Fore
SplineSet
600 950 m 0
 613 950 625 945 635 935 c 0
 645 925 650 913 650 900 c 0
 650 887 645 875 635 865 c 0
 628 858 619 853 610 851 c 2
 355 800 l 1
 610 749 l 2
 619 747 628 742 635 735 c 0
 645 725 650 713 650 700 c 0
 650 687 645 675 635 665 c 0
 628 658 619 653 610 651 c 2
 110 551 l 2
 107 550 103 550 100 550 c 0
 87 550 75 555 65 565 c 0
 55 575 50 587 50 600 c 0
 50 613 55 625 65 635 c 0
 72 642 81 647 90 649 c 2
 345 700 l 1
 90 751 l 2
 81 753 72 758 65 765 c 0
 55 775 50 787 50 800 c 0
 50 813 55 825 65 835 c 0
 72 842 81 847 90 849 c 2
 590 949 l 2
 593 950 597 950 600 950 c 0
EndSplineSet
EndChar

StartChar: uniE5AF
Encoding: 58799 58799 15
Width: 700
VWidth: 1024
Flags: HW
HStem: 100 0 500 0 600 0 700 0 800 0 900 0
VStem: 100 0 225 0 267 0 350 0 433 0 475 0 600 0
LayerCount: 2
Fore
SplineSet
600 950 m 4
 613 950 625 945 635 935 c 4
 645 925 650 913 650 900 c 4
 650 887 645 875 635 865 c 4
 628 858 619 853 610 851 c 6
 355 800 l 5
 610 749 l 6
 619 747 628 742 635 735 c 4
 645 725 650 713 650 700 c 4
 650 687 645 675 635 665 c 4
 628 658 619 653 610 651 c 6
 201 569 l 5
 635 135 l 6
 645 125 650 113 650 100 c 4
 650 87 645 75 635 65 c 4
 625 55 613 50 600 50 c 4
 587 50 575 55 565 65 c 6
 65 565 l 6
 55 575 50 587 50 600 c 4
 50 613 55 625 65 635 c 4
 72 642 81 647 90 649 c 6
 345 700 l 5
 90 751 l 6
 81 753 72 758 65 765 c 4
 55 775 50 787 50 800 c 4
 50 813 55 825 65 835 c 4
 72 842 81 847 90 849 c 6
 590 949 l 6
 593 950 597 950 600 950 c 4
EndSplineSet
EndChar

StartChar: uniE5B0
Encoding: 58800 58800 16
Width: 700
VWidth: 1024
Flags: HW
HStem: 100 0 500 0 600 0 700 0 800 0 900 0
VStem: 100 0 225 0 267 0 350 0 433 0 475 0 600 0
LayerCount: 2
Fore
SplineSet
600 950 m 4
 613 950 625 945 635 935 c 4
 645 925 650 913 650 900 c 4
 650 887 645 875 635 865 c 4
 628 858 619 853 610 851 c 6
 355 800 l 5
 610 749 l 6
 619 747 628 742 635 735 c 4
 645 725 650 713 650 700 c 4
 650 687 645 675 635 665 c 4
 628 658 619 653 610 651 c 6
 174 564 l 5
 355 202 l 5
 558 526 l 6
 560 529 562 532 565 535 c 4
 575 545 587 550 600 550 c 4
 613 550 625 545 635 535 c 4
 645 525 650 513 650 500 c 4
 650 491 647 482 642 474 c 6
 392 74 l 6
 390 71 388 68 385 65 c 4
 375 55 363 50 350 50 c 4
 337 50 325 55 315 65 c 4
 311 69 307 73 305 78 c 6
 55 578 l 6
 51 585 50 592 50 600 c 4
 50 613 55 625 65 635 c 4
 72 642 81 647 90 649 c 6
 345 700 l 5
 90 751 l 6
 81 753 72 758 65 765 c 4
 55 775 50 787 50 800 c 4
 50 813 55 825 65 835 c 4
 72 842 81 847 90 849 c 6
 590 949 l 6
 593 950 597 950 600 950 c 4
EndSplineSet
EndChar

StartChar: uniE5B1
Encoding: 58801 58801 17
Width: 700
VWidth: 1024
Flags: HW
HStem: 100 0 500 0 600 0 700 0 800 0 900 0
VStem: 100 0 225 0 267 0 350 0 433 0 475 0 600 0
LayerCount: 2
Fore
SplineSet
600 950 m 4
 613 950 625 945 635 935 c 4
 645 925 650 913 650 900 c 4
 650 887 645 875 635 865 c 4
 628 858 619 853 610 851 c 6
 355 800 l 5
 610 749 l 6
 619 747 628 742 635 735 c 4
 645 725 650 713 650 700 c 4
 650 687 645 675 635 665 c 4
 628 658 619 653 610 651 c 6
 165 562 l 5
 272 243 l 5
 387 519 l 6
 389 525 393 530 398 535 c 4
 408 545 420 550 433 550 c 4
 446 550 458 545 468 535 c 4
 473 530 477 525 479 519 c 6
 646 119 l 6
 649 113 650 107 650 100 c 4
 650 87 645 75 635 65 c 4
 625 55 613 50 600 50 c 4
 587 50 575 55 565 65 c 4
 560 70 556 75 554 81 c 6
 433 370 l 5
 313 81 l 6
 311 75 307 70 302 65 c 4
 292 55 280 50 267 50 c 4
 254 50 242 55 232 65 c 4
 226 71 222 77 220 84 c 6
 53 584 l 6
 51 589 50 595 50 600 c 4
 50 613 55 625 65 635 c 4
 72 642 81 647 90 649 c 6
 345 700 l 5
 90 751 l 6
 81 753 72 758 65 765 c 4
 55 775 50 787 50 800 c 4
 50 813 55 825 65 835 c 4
 72 842 81 847 90 849 c 6
 590 949 l 6
 593 950 597 950 600 950 c 4
EndSplineSet
EndChar

StartChar: uniE5B2
Encoding: 58802 58802 18
Width: 700
VWidth: 1024
Flags: HW
HStem: 100 0 500 0 600 0 700 0 800 0 900 0
VStem: 100 0 225 0 267 0 350 0 433 0 475 0 600 0
LayerCount: 2
Fore
SplineSet
600 950 m 4
 613 950 625 945 635 935 c 4
 645 925 650 913 650 900 c 4
 650 887 645 875 635 865 c 4
 628 858 619 853 610 851 c 6
 355 800 l 5
 610 749 l 6
 619 747 628 742 635 735 c 4
 645 725 650 713 650 700 c 4
 650 687 645 675 635 665 c 4
 628 658 619 653 610 651 c 6
 161 561 l 5
 230 285 l 5
 302 515 l 6
 304 522 309 529 315 535 c 4
 325 545 337 550 350 550 c 4
 363 550 375 545 385 535 c 4
 391 529 396 522 398 515 c 6
 475 268 l 5
 552 515 l 6
 554 522 559 529 565 535 c 4
 575 545 587 550 600 550 c 4
 613 550 625 545 635 535 c 4
 645 525 650 513 650 500 c 4
 650 495 650 490 648 485 c 6
 523 85 l 6
 521 78 516 71 510 65 c 4
 500 55 488 50 475 50 c 4
 462 50 450 55 440 65 c 4
 434 71 429 78 427 85 c 6
 350 332 l 5
 273 85 l 6
 271 78 266 71 260 65 c 4
 250 55 238 50 225 50 c 4
 212 50 200 55 190 65 c 4
 183 72 179 80 177 88 c 6
 52 588 l 6
 51 592 50 596 50 600 c 4
 50 613 55 625 65 635 c 4
 72 642 81 647 90 649 c 6
 345 700 l 5
 90 751 l 6
 81 753 72 758 65 765 c 4
 55 775 50 787 50 800 c 4
 50 813 55 825 65 835 c 4
 72 842 81 847 90 849 c 6
 590 949 l 6
 593 950 597 950 600 950 c 4
EndSplineSet
EndChar

StartChar: uniE5B3
Encoding: 58803 58803 19
Width: 700
VWidth: 1024
Flags: HW
HStem: 100 0 367 0 500 0 633 0 900 0
VStem: 101 0 226 0 268 0 351 0 434 0 476 0 601 0
LayerCount: 2
Fore
SplineSet
214 440 m 0
 214 363 292 294 371 294 c 0
 402 294 428 306 450 328 c 0
 474 352 492 389 497 426 c 0
 498 434 499 442 499 450 c 0
 499 471 495 491 487 508 c 0
 477 530 462 550 444 568 c 0
 422 590 394 610 364 627 c 1
 332 607 302 585 277 560 c 0
 255 538 238 516 226 491 c 0
 218 475 214 457 214 440 c 0
57 770 m 0
 57 783 62 795 72 805 c 0
 82 815 94 820 107 820 c 0
 115 820 124 818 131 814 c 0
 135 813 148 809 164 805 c 0
 207 794 278 776 350 745 c 0
 354 743 358 742 362 740 c 0
 372 745 381 750 390 754 c 0
 479 795 543 812 590 826 c 0
 596 829 603 830 610 830 c 0
 623 830 636 826 646 816 c 0
 656 806 660 793 660 780 c 0
 660 767 656 755 646 745 c 0
 644 743 641 741 638 739 c 0
 631 734 629 734 627 733 c 0
 619 730 614 729 604 726 c 0
 577 718 525 703 468 679 c 1
 513 646 553 604 578 550 c 0
 592 518 599 484 599 450 c 0
 599 437 598 425 596 412 c 0
 588 355 563 299 521 257 c 0
 483 219 431 194 371 194 c 0
 368 194 364 194 361 194 c 0
 294 197 232 228 188 272 c 0
 144 316 115 376 115 441 c 0
 115 471 122 502 136 533 c 0
 163 591 206 637 255 674 c 1
 211 689 170 700 140 708 c 0
 121 713 108 715 93 721 c 0
 89 722 85 725 79 729 c 0
 77 731 74 732 72 734 c 0
 62 744 57 757 57 770 c 0
EndSplineSet
EndChar
